<svg width="220" height="30" viewBox="0 0 220 30" fill="none" xmlns="http://www.w3.org/2000/svg">
<path d="M6.27249 0.581201V9.43967L12.2897 0.581201H19.2955L9.11879 10.9627L27.6996 0.581201V7.17262L11.0163 13.4345L27.6996 11.8715V18.1334L11.0163 16.5704L27.6996 22.8322V29.4237L9.11879 19.0422L19.2955 29.4237H12.2847L6.2675 20.5652V29.4237H0.5V0.581201H6.27249Z" fill="#102752"/>
<path d="M31.8143 0.581201H38.6104L37.5817 19.2419L46.0257 0.581201H51.5885V29.4187H44.7924L45.821 10.758L37.377 29.4187H31.8143V0.581201Z" fill="#102752"/>
<path d="M55.7082 0.581201H62.5043V11.7067H68.2718V0.581201H75.068V29.4187H68.2718V16.2358H62.5043V29.4187H55.7082V0.581201Z" fill="#102752"/>
<path d="M78.1989 15.0024C78.1989 6.76316 81.9889 0.0069515 89.609 0.0069515C97.2291 0.0069515 101.019 6.76316 101.019 15.0024C101.019 23.2417 97.2291 29.9979 89.609 29.9979C81.9889 29.9979 78.1989 23.2417 78.1989 15.0024ZM89.609 25.7135C92.2855 25.7135 93.8535 20.9747 93.8535 15.0024C93.8535 9.03021 92.2855 4.29138 89.609 4.29138C86.9325 4.29138 85.3646 9.03021 85.3646 15.0024C85.3695 20.9747 86.9325 25.7135 89.609 25.7135Z" fill="#102752"/>
<path d="M104.15 0.581201H123.72V29.4187H116.923V5.11031H110.951V29.4187H104.155V0.581201H104.15Z" fill="#102752"/>
<path d="M126.851 15.0024C126.851 6.76316 130.641 0.0069515 138.261 0.0069515C145.881 0.0069515 149.671 6.76316 149.671 15.0024C149.671 23.2417 145.881 29.9979 138.261 29.9979C130.641 29.9979 126.851 23.2417 126.851 15.0024ZM138.266 25.7135C140.942 25.7135 142.51 20.9747 142.51 15.0024C142.51 9.03021 140.942 4.29138 138.266 4.29138C135.589 4.29138 134.021 9.03021 134.021 15.0024C134.021 20.9747 135.584 25.7135 138.266 25.7135Z" fill="#102752"/>
<path d="M152.807 0.581201H159.603L158.574 19.2419L167.018 0.581201H172.581V29.4187H165.785L166.814 10.758L158.37 29.4187H152.807V0.581201Z" fill="#102752"/>
<path d="M190.663 19.2419L197.129 20.2306L196.924 21.2193C195.811 26.5774 192.435 29.9929 186.872 29.9929C179.252 29.9929 175.707 23.2367 175.707 14.9974C175.707 6.75816 179.252 0.00195312 186.872 0.00195312C192.23 0.00195312 195.646 3.4225 196.844 8.44596L197.049 9.30984L190.418 10.7929C189.924 6.79811 188.73 4.28139 186.872 4.28139C184.196 4.28139 182.878 9.02022 182.878 14.9924C182.878 20.9647 184.196 25.7035 186.872 25.7035C188.895 25.7135 190.168 23.032 190.663 19.2419Z" fill="#102752"/>
<path d="M199.93 0.581201H206.727V13.5593L212.289 0.581201H219.295L211.261 14.548L219.5 29.4187H211.88L206.732 16.4406V29.4187H199.935V0.581201H199.93Z" fill="#102752"/>
</svg>
