<svg width="92" height="34" viewBox="0 0 92 34" fill="none" xmlns="http://www.w3.org/2000/svg">
<path d="M26.9255 4.4H5.19787L6.76383 0H28.4915L26.9255 4.4ZM26.1426 6.6H4.41489L2.84894 11H24.5766L26.1426 6.6ZM23.7936 13.2H2.06596L0.5 17.6H22.2277L23.7936 13.2Z" fill="#00AAFF"/>
<path d="M78.7 28.6H82.6149C84.083 28.6 84.9638 28.2 85.6489 27.4C85.9425 27 86.4319 26.3 86.4319 24.9C86.4319 23.5 85.9425 22.6 85.0617 21.9C84.5723 21.5 83.7893 21.3 82.6149 21.3H78.7979V28.6H78.7ZM73.6106 33V6.59998H90.4447L88.9766 11H78.7V16.9H82.9085C86.2361 16.9 87.9979 17.7 89.1723 18.8C90.151 19.6 91.717 21.5 91.717 25.1C91.717 28.7 90.0532 30.6 88.683 31.6C87.117 32.7 85.3553 33.1 81.9298 33.1H73.6106V33ZM58.734 33V11H51.2957V6.59998H71.9468L70.4787 11H63.8234V33H58.734ZM37.9851 17.2H40.9213C41.8021 17.2 42.2915 17.2 42.683 17.1C43.8574 16.7 44.6404 15.6 44.6404 14.1C44.6404 12.3 43.8574 11.5 42.683 11.2C42.1936 11.1 41.7042 11 40.7255 11H37.9851V17.2ZM37.9851 21.7V28.6H41.6064C42.683 28.6 43.6617 28.5 44.3468 27.8C45.0319 27.1 45.4234 26.2 45.4234 25.1C45.4234 24.2 45.2276 23.4 44.7383 22.8C43.9553 21.8 43.0744 21.6 41.4106 21.6H37.9851V21.7ZM46.3042 18.9C47.283 19.4 48.2617 20 48.751 20.4C50.317 21.7 50.9042 23.4 50.9042 25.6C50.9042 29.2 49.0447 31.8 45.9127 32.6C44.934 32.9 43.9553 33 42.1936 33H32.7979V6.59998H41.117C42.7808 6.59998 43.9553 6.69998 45.0319 6.99998C48.0659 7.79998 50.0234 9.89998 50.0234 13.3C50.0234 15.1 49.4362 16.6 48.3596 17.6C47.8702 18 47.283 18.5 46.3042 18.9Z" fill="#002882"/>
</svg>
